<svg width="1280" height="720" xmlns="http://www.w3.org/2000/svg" xmlns:xlink="http://www.w3.org/1999/xlink" overflow="hidden"><defs><linearGradient x1="1280" y1="360" x2="0" y2="360" gradientUnits="userSpaceOnUse" spreadMethod="reflect" id="fill0"><stop offset="0" stop-color="#475768"/><stop offset="0.0163934" stop-color="#465667"/><stop offset="0.0327869" stop-color="#465667"/><stop offset="0.0491803" stop-color="#465667"/><stop offset="0.0655738" stop-color="#465667"/><stop offset="0.0819672" stop-color="#465667"/><stop offset="0.0983607" stop-color="#465667"/><stop offset="0.114754" stop-color="#465666"/><stop offset="0.131148" stop-color="#465566"/><stop offset="0.147541" stop-color="#455566"/><stop offset="0.163934" stop-color="#455565"/><stop offset="0.180328" stop-color="#455465"/><stop offset="0.196721" stop-color="#445465"/><stop offset="0.213115" stop-color="#445464"/><stop offset="0.229508" stop-color="#445364"/><stop offset="0.245902" stop-color="#435363"/><stop offset="0.262295" stop-color="#435262"/><stop offset="0.278689" stop-color="#435262"/><stop offset="0.295082" stop-color="#425161"/><stop offset="0.311475" stop-color="#425161"/><stop offset="0.327869" stop-color="#415060"/><stop offset="0.344262" stop-color="#414F5F"/><stop offset="0.360656" stop-color="#404F5E"/><stop offset="0.377049" stop-color="#404E5E"/><stop offset="0.393443" stop-color="#3F4D5D"/><stop offset="0.409836" stop-color="#3E4D5C"/><stop offset="0.42623" stop-color="#3E4C5B"/><stop offset="0.442623" stop-color="#3D4B5A"/><stop offset="0.459016" stop-color="#3D4A59"/><stop offset="0.47541" stop-color="#3C4958"/><stop offset="0.491803" stop-color="#3B4857"/><stop offset="0.508197" stop-color="#3A4856"/><stop offset="0.52459" stop-color="#3A4755"/><stop offset="0.540984" stop-color="#394654"/><stop offset="0.557377" stop-color="#384553"/><stop offset="0.57377" stop-color="#374452"/><stop offset="0.590164" stop-color="#374350"/><stop offset="0.606557" stop-color="#36424F"/><stop offset="0.622951" stop-color="#35414E"/><stop offset="0.639344" stop-color="#34404D"/><stop offset="0.655738" stop-color="#333E4B"/><stop offset="0.672131" stop-color="#323D4A"/><stop offset="0.688525" stop-color="#313C49"/><stop offset="0.704918" stop-color="#303B47"/><stop offset="0.721311" stop-color="#2F3A46"/><stop offset="0.737705" stop-color="#2E3944"/><stop offset="0.754098" stop-color="#2D3743"/><stop offset="0.770492" stop-color="#2C3641"/><stop offset="0.786885" stop-color="#2B3540"/><stop offset="0.803279" stop-color="#2A333E"/><stop offset="0.819672" stop-color="#29323D"/><stop offset="0.836066" stop-color="#28313B"/><stop offset="0.852459" stop-color="#272F3A"/><stop offset="0.868852" stop-color="#252E38"/><stop offset="0.885246" stop-color="#242C36"/><stop offset="0.901639" stop-color="#232B34"/><stop offset="0.918033" stop-color="#222933"/><stop offset="0.934426" stop-color="#212831"/><stop offset="0.95082" stop-color="#1F262F"/><stop offset="0.967213" stop-color="#1E252D"/><stop offset="0.983607" stop-color="#1D232B"/><stop offset="1" stop-color="#1C222A"/></linearGradient><linearGradient x1="211.387" y1="-2.80118" x2="259.613" y2="184.801" gradientUnits="userSpaceOnUse" spreadMethod="reflect" id="fill1"><stop offset="0" stop-color="#3A4653"/><stop offset="0.28" stop-color="#3A4653"/><stop offset="0.6" stop-color="#29343F"/><stop offset="1" stop-color="#29343F"/></linearGradient><linearGradient x1="-16.248" y1="238.294" x2="489.248" y2="606.706" gradientUnits="userSpaceOnUse" spreadMethod="reflect" id="fill2"><stop offset="0" stop-color="#3A4653"/><stop offset="0.19" stop-color="#3A4653"/><stop offset="0.6" stop-color="#29343F"/><stop offset="1" stop-color="#29343F"/></linearGradient><linearGradient x1="551" y1="41" x2="551" y2="252" gradientUnits="userSpaceOnUse" spreadMethod="reflect" id="fill3"><stop offset="0" stop-color="#3A4653"/><stop offset="0.19" stop-color="#3A4653"/><stop offset="0.6" stop-color="#29343F"/><stop offset="1" stop-color="#29343F"/></linearGradient><linearGradient x1="889.007" y1="-37.9377" x2="1028.99" y2="330.938" gradientUnits="userSpaceOnUse" spreadMethod="reflect" id="fill4"><stop offset="0" stop-color="#1DBD98"/><stop offset="0.19" stop-color="#1DBD98"/><stop offset="0.66" stop-color="#1A8B77"/><stop offset="1" stop-color="#1A8B77"/></linearGradient><linearGradient x1="811.121" y1="202.941" x2="888.879" y2="541.059" gradientUnits="userSpaceOnUse" spreadMethod="reflect" id="fill5"><stop offset="0" stop-color="#3A4653"/><stop offset="0.33" stop-color="#3A4653"/><stop offset="0.67" stop-color="#29343F"/><stop offset="1" stop-color="#29343F"/></linearGradient><linearGradient x1="547.569" y1="443.104" x2="717.431" y2="736.896" gradientUnits="userSpaceOnUse" spreadMethod="reflect" id="fill6"><stop offset="0" stop-color="#3A4653"/><stop offset="0.28" stop-color="#3A4653"/><stop offset="0.6" stop-color="#29343F"/><stop offset="1" stop-color="#29343F"/></linearGradient><linearGradient x1="958.792" y1="431.644" x2="1113.21" y2="748.356" gradientUnits="userSpaceOnUse" spreadMethod="reflect" id="fill7"><stop offset="0" stop-color="#3A4653"/><stop offset="0.28" stop-color="#3A4653"/><stop offset="0.6" stop-color="#29343F"/><stop offset="1" stop-color="#29343F"/></linearGradient></defs><g><rect x="0" y="0" width="1280" height="720" fill="url(#fill0)"/><path d="M41 59.763C41 49.4005 49.4005 41 59.763 41L411.237 41C421.6 41 430 49.4005 430 59.763L430 122.237C430 132.6 421.6 141 411.237 141L59.763 141C49.4005 141 41 132.6 41 122.237Z" fill="url(#fill1)" fill-rule="evenodd"/><path d="M43 179.69C43 167.159 53.1587 157 65.69 157L407.31 157C419.841 157 430 167.159 430 179.69L430 665.31C430 677.841 419.841 688 407.31 688L65.69 688C53.1587 688 43 677.841 43 665.31Z" fill="url(#fill2)" fill-rule="evenodd"/><path d="M464 59.3709C464 49.2249 472.225 41 482.371 41L619.629 41C629.775 41 638 49.2249 638 59.3709L638 233.629C638 243.775 629.775 252 619.629 252L482.371 252C472.225 252 464 243.775 464 233.629Z" fill="url(#fill3)" fill-rule="evenodd"/><path d="M681 59.4981C681 49.2819 689.282 41 699.498 41L1218.5 41C1228.72 41 1237 49.2819 1237 59.4981L1237 233.502C1237 243.718 1228.72 252 1218.5 252L699.498 252C689.282 252 681 243.718 681 233.502Z" fill="url(#fill4)" fill-rule="evenodd"/><path d="M463 298.543C463 289.959 469.959 283 478.543 283L1221.46 283C1230.04 283 1237 289.959 1237 298.543L1237 445.457C1237 454.041 1230.04 461 1221.46 461L478.543 461C469.959 461 463 454.041 463 445.457Z" fill="url(#fill5)" fill-rule="evenodd"/><path d="M463 507.582C463 498.976 469.976 492 478.582 492L786.418 492C795.024 492 802 498.976 802 507.582L802 672.418C802 681.024 795.024 688 786.418 688L478.582 688C469.976 688 463 681.024 463 672.418Z" fill="url(#fill6)" fill-rule="evenodd"/><path d="M835 504.516C835 497.604 840.604 492 847.516 492L1224.48 492C1231.4 492 1237 497.604 1237 504.516L1237 675.484C1237 682.396 1231.4 688 1224.48 688L847.516 688C840.604 688 835 682.396 835 675.484Z" fill="url(#fill7)" fill-rule="evenodd"/></g></svg>