<svg width="1280" height="720" xmlns="http://www.w3.org/2000/svg" xmlns:xlink="http://www.w3.org/1999/xlink" overflow="hidden"><defs><filter id="fx0" x="-10%" y="-10%" width="120%" height="120%" filterUnits="userSpaceOnUse" primitiveUnits="userSpaceOnUse"><feComponentTransfer color-interpolation-filters="sRGB"><feFuncR type="discrete" tableValues="0.498039 0.498039"/><feFuncG type="discrete" tableValues="0.498039 0.498039"/><feFuncB type="discrete" tableValues="0.498039 0.498039"/><feFuncA type="linear" slope="0.188235" intercept="0"/></feComponentTransfer><feGaussianBlur stdDeviation="1.77778 1.77778"/></filter><filter id="fx1" x="-10%" y="-10%" width="120%" height="120%" filterUnits="userSpaceOnUse" primitiveUnits="userSpaceOnUse"><feComponentTransfer color-interpolation-filters="sRGB"><feFuncR type="discrete" tableValues="0.498039 0.498039"/><feFuncG type="discrete" tableValues="0.498039 0.498039"/><feFuncB type="discrete" tableValues="0.498039 0.498039"/><feFuncA type="linear" slope="0.188235" intercept="0"/></feComponentTransfer><feGaussianBlur stdDeviation="1.77778 1.77778"/></filter><filter id="fx2" x="-10%" y="-10%" width="120%" height="120%" filterUnits="userSpaceOnUse" primitiveUnits="userSpaceOnUse"><feComponentTransfer color-interpolation-filters="sRGB"><feFuncR type="discrete" tableValues="0.498039 0.498039"/><feFuncG type="discrete" tableValues="0.498039 0.498039"/><feFuncB type="discrete" tableValues="0.498039 0.498039"/><feFuncA type="linear" slope="0.188235" intercept="0"/></feComponentTransfer><feGaussianBlur stdDeviation="1.77778 1.77778"/></filter><filter id="fx3" x="-10%" y="-10%" width="120%" height="120%" filterUnits="userSpaceOnUse" primitiveUnits="userSpaceOnUse"><feComponentTransfer color-interpolation-filters="sRGB"><feFuncR type="discrete" tableValues="0.498039 0.498039"/><feFuncG type="discrete" tableValues="0.498039 0.498039"/><feFuncB type="discrete" tableValues="0.498039 0.498039"/><feFuncA type="linear" slope="0.188235" intercept="0"/></feComponentTransfer><feGaussianBlur stdDeviation="1.77778 1.77778"/></filter><filter id="fx4" x="-10%" y="-10%" width="120%" height="120%" filterUnits="userSpaceOnUse" primitiveUnits="userSpaceOnUse"><feComponentTransfer color-interpolation-filters="sRGB"><feFuncR type="discrete" tableValues="0.498039 0.498039"/><feFuncG type="discrete" tableValues="0.498039 0.498039"/><feFuncB type="discrete" tableValues="0.498039 0.498039"/><feFuncA type="linear" slope="0.188235" intercept="0"/></feComponentTransfer><feGaussianBlur stdDeviation="1.77778 1.77778"/></filter><filter id="fx5" x="-10%" y="-10%" width="120%" height="120%" filterUnits="userSpaceOnUse" primitiveUnits="userSpaceOnUse"><feComponentTransfer color-interpolation-filters="sRGB"><feFuncR type="discrete" tableValues="0.498039 0.498039"/><feFuncG type="discrete" tableValues="0.498039 0.498039"/><feFuncB type="discrete" tableValues="0.498039 0.498039"/><feFuncA type="linear" slope="0.188235" intercept="0"/></feComponentTransfer><feGaussianBlur stdDeviation="1.77778 1.77778"/></filter><filter id="fx6" x="-10%" y="-10%" width="120%" height="120%" filterUnits="userSpaceOnUse" primitiveUnits="userSpaceOnUse"><feComponentTransfer color-interpolation-filters="sRGB"><feFuncR type="discrete" tableValues="0.498039 0.498039"/><feFuncG type="discrete" tableValues="0.498039 0.498039"/><feFuncB type="discrete" tableValues="0.498039 0.498039"/><feFuncA type="linear" slope="0.188235" intercept="0"/></feComponentTransfer><feGaussianBlur stdDeviation="1.77778 1.77778"/></filter><linearGradient x1="1280" y1="360" x2="0" y2="360" gradientUnits="userSpaceOnUse" spreadMethod="reflect" id="fill7"><stop offset="0" stop-color="#475768"/><stop offset="0.0163934" stop-color="#465667"/><stop offset="0.0327869" stop-color="#465667"/><stop offset="0.0491803" stop-color="#465667"/><stop offset="0.0655738" stop-color="#465667"/><stop offset="0.0819672" stop-color="#465667"/><stop offset="0.0983607" stop-color="#465667"/><stop offset="0.114754" stop-color="#465666"/><stop offset="0.131148" stop-color="#465566"/><stop offset="0.147541" stop-color="#455566"/><stop offset="0.163934" stop-color="#455565"/><stop offset="0.180328" stop-color="#455465"/><stop offset="0.196721" stop-color="#445465"/><stop offset="0.213115" stop-color="#445464"/><stop offset="0.229508" stop-color="#445364"/><stop offset="0.245902" stop-color="#435363"/><stop offset="0.262295" stop-color="#435262"/><stop offset="0.278689" stop-color="#435262"/><stop offset="0.295082" stop-color="#425161"/><stop offset="0.311475" stop-color="#425161"/><stop offset="0.327869" stop-color="#415060"/><stop offset="0.344262" stop-color="#414F5F"/><stop offset="0.360656" stop-color="#404F5E"/><stop offset="0.377049" stop-color="#404E5E"/><stop offset="0.393443" stop-color="#3F4D5D"/><stop offset="0.409836" stop-color="#3E4D5C"/><stop offset="0.42623" stop-color="#3E4C5B"/><stop offset="0.442623" stop-color="#3D4B5A"/><stop offset="0.459016" stop-color="#3D4A59"/><stop offset="0.47541" stop-color="#3C4958"/><stop offset="0.491803" stop-color="#3B4857"/><stop offset="0.508197" stop-color="#3A4856"/><stop offset="0.52459" stop-color="#3A4755"/><stop offset="0.540984" stop-color="#394654"/><stop offset="0.557377" stop-color="#384553"/><stop offset="0.57377" stop-color="#374452"/><stop offset="0.590164" stop-color="#374350"/><stop offset="0.606557" stop-color="#36424F"/><stop offset="0.622951" stop-color="#35414E"/><stop offset="0.639344" stop-color="#34404D"/><stop offset="0.655738" stop-color="#333E4B"/><stop offset="0.672131" stop-color="#323D4A"/><stop offset="0.688525" stop-color="#313C49"/><stop offset="0.704918" stop-color="#303B47"/><stop offset="0.721311" stop-color="#2F3A46"/><stop offset="0.737705" stop-color="#2E3944"/><stop offset="0.754098" stop-color="#2D3743"/><stop offset="0.770492" stop-color="#2C3641"/><stop offset="0.786885" stop-color="#2B3540"/><stop offset="0.803279" stop-color="#2A333E"/><stop offset="0.819672" stop-color="#29323D"/><stop offset="0.836066" stop-color="#28313B"/><stop offset="0.852459" stop-color="#272F3A"/><stop offset="0.868852" stop-color="#252E38"/><stop offset="0.885246" stop-color="#242C36"/><stop offset="0.901639" stop-color="#232B34"/><stop offset="0.918033" stop-color="#222933"/><stop offset="0.934426" stop-color="#212831"/><stop offset="0.95082" stop-color="#1F262F"/><stop offset="0.967213" stop-color="#1E252D"/><stop offset="0.983607" stop-color="#1D232B"/><stop offset="1" stop-color="#1C222A"/></linearGradient><linearGradient x1="319.973" y1="31.1865" x2="418.027" y2="150.814" gradientUnits="userSpaceOnUse" spreadMethod="reflect" id="fill8"><stop offset="0" stop-color="#3A4653"/><stop offset="0.28" stop-color="#3A4653"/><stop offset="0.6" stop-color="#29343F"/><stop offset="1" stop-color="#29343F"/></linearGradient><linearGradient x1="-16.248" y1="239.294" x2="489.248" y2="607.706" gradientUnits="userSpaceOnUse" spreadMethod="reflect" id="fill9"><stop offset="0" stop-color="#3A4653"/><stop offset="0.19" stop-color="#3A4653"/><stop offset="0.6" stop-color="#29343F"/><stop offset="1" stop-color="#29343F"/></linearGradient><linearGradient x1="551" y1="41" x2="551" y2="252" gradientUnits="userSpaceOnUse" spreadMethod="reflect" id="fill10"><stop offset="0" stop-color="#3A4653"/><stop offset="0.19" stop-color="#3A4653"/><stop offset="0.6" stop-color="#29343F"/><stop offset="1" stop-color="#29343F"/></linearGradient><linearGradient x1="1028.99" y1="330.938" x2="889.007" y2="-37.9377" gradientUnits="userSpaceOnUse" spreadMethod="reflect" id="fill11"><stop offset="0" stop-color="#29343F"/><stop offset="0.19" stop-color="#29343F"/><stop offset="0.74" stop-color="#3A4654"/><stop offset="1" stop-color="#3A4654"/></linearGradient><linearGradient x1="811.121" y1="202.941" x2="888.879" y2="541.059" gradientUnits="userSpaceOnUse" spreadMethod="reflect" id="fill12"><stop offset="0" stop-color="#3A4653"/><stop offset="0.33" stop-color="#3A4653"/><stop offset="0.67" stop-color="#29343F"/><stop offset="1" stop-color="#29343F"/></linearGradient><linearGradient x1="547.569" y1="443.104" x2="717.431" y2="736.896" gradientUnits="userSpaceOnUse" spreadMethod="reflect" id="fill13"><stop offset="0" stop-color="#3A4653"/><stop offset="0.28" stop-color="#3A4653"/><stop offset="0.6" stop-color="#29343F"/><stop offset="1" stop-color="#29343F"/></linearGradient><linearGradient x1="958.792" y1="431.644" x2="1113.21" y2="748.356" gradientUnits="userSpaceOnUse" spreadMethod="reflect" id="fill14"><stop offset="0" stop-color="#3A4653"/><stop offset="0.28" stop-color="#3A4653"/><stop offset="0.6" stop-color="#29343F"/><stop offset="1" stop-color="#29343F"/></linearGradient></defs><g><rect x="0" y="0" width="1280" height="720" fill="url(#fill7)"/><g filter="url(#fx0)" transform="translate(304 37)"><g><path d="M6.82843 17.2385C6.82843 11.4892 11.4892 6.82843 17.2385 6.82843L118.418 6.82843C124.168 6.82843 128.828 11.4892 128.828 17.2385L128.828 96.4184C128.828 102.168 124.168 106.828 118.418 106.828L17.2385 106.828C11.4892 106.828 6.82843 102.168 6.82843 96.4184Z" fill="#FF0000" fill-rule="evenodd"/></g></g><path d="M308 51.41C308 45.6607 312.661 41 318.41 41L419.59 41C425.339 41 430 45.6607 430 51.41L430 130.59C430 136.339 425.339 141 419.59 141L318.41 141C312.661 141 308 136.339 308 130.59Z" fill="url(#fill8)" fill-rule="evenodd"/><g filter="url(#fx1)" transform="translate(39 154)"><g><path d="M6.82843 15.9502C6.82843 10.9124 10.9124 6.82843 15.9502 6.82843L384.707 6.82843C389.744 6.82843 393.828 10.9124 393.828 15.9502L393.828 528.707C393.828 533.745 389.744 537.828 384.707 537.828L15.9502 537.828C10.9124 537.828 6.82843 533.745 6.82843 528.707Z" fill="#FF0000" fill-rule="evenodd"/></g></g><path d="M43 167.122C43 162.084 47.084 158 52.1218 158L420.878 158C425.916 158 430 162.084 430 167.122L430 679.878C430 684.916 425.916 689 420.878 689L52.1218 689C47.084 689 43 684.916 43 679.878Z" fill="url(#fill9)" fill-rule="evenodd"/><g filter="url(#fx2)" transform="translate(460 37)"><g><path d="M6.82843 18.9388C6.82843 12.2504 12.2504 6.82843 18.9388 6.82843L168.718 6.82843C175.406 6.82843 180.828 12.2504 180.828 18.9388L180.828 205.718C180.828 212.406 175.406 217.828 168.718 217.828L18.9388 217.828C12.2504 217.828 6.82843 212.406 6.82843 205.718Z" fill="#FF0000" fill-rule="evenodd"/></g></g><path d="M464 53.1103C464 46.422 469.422 41 476.11 41L625.89 41C632.578 41 638 46.422 638 53.1103L638 239.89C638 246.578 632.578 252 625.89 252L476.11 252C469.422 252 464 246.578 464 239.89Z" fill="url(#fill10)" fill-rule="evenodd"/><g filter="url(#fx3)" transform="translate(677 37)"><g><path d="M6.82843 18.022C6.82843 11.84 11.84 6.82843 18.022 6.82843L551.635 6.82843C557.817 6.82843 562.828 11.84 562.828 18.022L562.828 206.635C562.828 212.817 557.817 217.828 551.635 217.828L18.022 217.828C11.84 217.828 6.82843 212.817 6.82843 206.635Z" fill="#FF0000" fill-rule="evenodd"/></g></g><path d="M681 52.1936C681 46.0115 686.012 41 692.194 41L1225.81 41C1231.99 41 1237 46.0115 1237 52.1936L1237 240.806C1237 246.988 1231.99 252 1225.81 252L692.194 252C686.012 252 681 246.988 681 240.806Z" fill="url(#fill11)" fill-rule="evenodd"/><g filter="url(#fx4)" transform="translate(459 279)"><g><path d="M6.82843 19.24C6.82843 12.3853 12.3853 6.82843 19.24 6.82843L768.417 6.82843C775.272 6.82843 780.828 12.3853 780.828 19.24L780.828 172.417C780.828 179.272 775.272 184.828 768.417 184.828L19.24 184.828C12.3853 184.828 6.82843 179.272 6.82843 172.417Z" fill="#FF0000" fill-rule="evenodd"/></g></g><path d="M463 295.412C463 288.557 468.557 283 475.412 283L1224.59 283C1231.44 283 1237 288.557 1237 295.412L1237 448.588C1237 455.443 1231.44 461 1224.59 461L475.412 461C468.557 461 463 455.443 463 448.588Z" fill="url(#fill12)" fill-rule="evenodd"/><g filter="url(#fx5)" transform="translate(459 488)"><g><path d="M6.82843 21.2107C6.82843 13.2676 13.2676 6.82843 21.2107 6.82843L331.446 6.82843C339.389 6.82843 345.828 13.2676 345.828 21.2107L345.828 188.446C345.828 196.389 339.389 202.828 331.446 202.828L21.2107 202.828C13.2676 202.828 6.82843 196.389 6.82843 188.446Z" fill="#FF0000" fill-rule="evenodd"/></g></g><path d="M463 506.382C463 498.439 469.439 492 477.382 492L787.618 492C795.561 492 802 498.439 802 506.382L802 673.618C802 681.561 795.561 688 787.618 688L477.382 688C469.439 688 463 681.561 463 673.618Z" fill="url(#fill13)" fill-rule="evenodd"/><g filter="url(#fx6)" transform="translate(831 488)"><g><path d="M6.82843 19.3448C6.82843 12.4322 12.4322 6.82843 19.3448 6.82843L396.312 6.82843C403.225 6.82843 408.828 12.4322 408.828 19.3448L408.828 190.312C408.828 197.225 403.225 202.828 396.312 202.828L19.3448 202.828C12.4322 202.828 6.82843 197.225 6.82843 190.312Z" fill="#FF0000" fill-rule="evenodd"/></g></g><path d="M835 504.516C835 497.604 840.604 492 847.516 492L1224.48 492C1231.4 492 1237 497.604 1237 504.516L1237 675.484C1237 682.396 1231.4 688 1224.48 688L847.516 688C840.604 688 835 682.396 835 675.484Z" fill="url(#fill14)" fill-rule="evenodd"/></g></svg>